<?xml version="1.0" encoding="utf-8"?>
<!-- Generator: Adobe Illustrator 21.0.0, SVG Export Plug-In . SVG Version: 6.00 Build 0)  -->
<svg version="1.1" id="Livello_1" xmlns="http://www.w3.org/2000/svg" xmlns:xlink="http://www.w3.org/1999/xlink" x="0px" y="0px"
	 viewBox="0 0 1080 1080" style="enable-background:new 0 0 1080 1080;" xml:space="preserve">
<style type="text/css">
	.st0{fill:#D11229;}
	.st1{fill:#F4F4F4;}
</style>
<g id="_2">
	<path class="st0" d="M410.6,617.5c1.8,0,3.2-1,3.2-2.2c0-3.4-10.5-0.6-10.5-7c0-3.1,3.4-5.3,8-5.3h8.7v-3.6c0-1.2,0.9-2.2,2.1-2.3
		c0.1,0,0.1,0,0.2,0c1.2,0,2.2,0.9,2.3,2.1c0,0.1,0,0.1,0,0.2v3.5h3.9c0.8,0,1.5,0.6,1.6,1.4c0,0.1,0,0.1,0,0.2
		c0.1,0.8-0.6,1.5-1.4,1.6c-0.1,0-0.1,0-0.2,0h-3.9v6.5c0,2.1,1.6,3.8,3.7,3.8c0.1,0,0.1,0,0.2,0c1.1-0.1,2.1,0.8,2.2,1.9
		c0.1,1.1-0.8,2.1-1.9,2.2c-0.1,0-0.2,0-0.3,0H427c-4.1,0-7-3.1-7-7.4v-7h-8.8c-1.8,0-3.2,0.9-3.2,2.2c0,3.3,10.5,0.6,10.5,7
		c0,3.1-3.3,5.3-7.6,5.3s-7.6-2.4-7.7-5.2c0-0.9,0.8-1.4,2-1.4c0.8-0.1,1.5,0.3,1.9,0.9C407.6,616.6,409,617.6,410.6,617.5z"/>
	<path class="st0" d="M441,602.8c4.8-0.2,9,3.5,9.2,8.4c0,0.2,0,0.4,0,0.6c0,5.2-3.9,9-9.2,9c-5,0.4-9.3-3.3-9.7-8.2
		s3.3-9.3,8.2-9.7C440,602.8,440.5,602.8,441,602.8L441,602.8z M441,617.1c2.6,0,4.5-2.1,4.5-5.4s-1.9-5.4-4.5-5.4s-4.5,2.1-4.5,5.4
		S438.4,617.1,441,617.1L441,617.1z"/>
	<path class="st0" d="M452.9,605c0-1.3,1.1-2.3,2.3-2.2c1,0,1.9,0.7,2.2,1.7c1.3-1.1,3-1.8,4.7-1.8c1.5,0,2.1,0.7,2.1,1.8
		s-0.6,1.7-1.9,1.7c-2.6,0-4.9,1.6-4.9,3.7v8.4c0,1.3-1,2.3-2.3,2.3c-1.3,0-2.3-1-2.3-2.3L452.9,605z"/>
	<path class="st0" d="M469.8,612.7c0,2.6,2.1,4.6,4.7,4.6c0,0,0.1,0,0.1,0c1.8,0,3.5-1,4.4-2.6c0.5-0.5,1.2-0.8,1.9-0.8
		c0.8-0.1,1.5,0.6,1.6,1.4c0,0.3,0,0.5-0.1,0.7c-0.9,2.5-4.2,4.7-8.2,4.7c-5-0.3-8.7-4.7-8.3-9.6c0.3-4.4,3.8-7.9,8.2-8.3
		c4.1-0.1,7.6,2.7,8.5,6.7c0.5,1.8-0.9,3.3-3,3.3L469.8,612.7z M477.9,610.1c-0.3-2.7-1.9-4.4-4-4.4s-3.7,1.7-4,4.4H477.9z"/>
	<path class="st0" d="M501.9,613.6c2,0.1,3.7-1.4,3.8-3.4c0-0.1,0-0.2,0-0.3V605c-0.1-1.2,0.9-2.2,2-2.3c0.1,0,0.2,0,0.3,0
		c1.2-0.1,2.2,0.9,2.2,2c0,0.1,0,0.1,0,0.2v4.8c0,2.3-1.5,4.4-3.7,5.1c2.3,0.9,3.8,3.1,3.9,5.5c0,3.8-3.5,6.1-8.2,6.1
		c-5.1,0-8.8-2.7-8.8-6.5c-0.1-1.2,0.8-2.2,2-2.2c0.1,0,0.2,0,0.3,0c1.1-0.1,2.1,0.7,2.2,1.8c0,2,1.8,3.5,4.2,3.5
		c2.2,0,3.8-1.2,3.8-3.1s-1.6-3.3-3.9-3.3c-4.9,0-8.4-3-8.4-7.1V605c0-1.3,1-2.3,2.3-2.3c1.3,0,2.3,1,2.3,2.3v4.8
		c-0.1,2,1.5,3.7,3.5,3.7C501.7,613.6,501.8,613.6,501.9,613.6z"/>
	<path class="st0" d="M521.8,602.8c4.8-0.2,9,3.5,9.2,8.4c0,0.2,0,0.4,0,0.6c0,5.2-3.8,9-9.2,9c-5,0.4-9.3-3.3-9.7-8.2
		c-0.4-5,3.3-9.3,8.2-9.7C520.8,602.8,521.3,602.8,521.8,602.8L521.8,602.8z M521.8,617.1c2.6,0,4.5-2.1,4.5-5.4s-1.9-5.4-4.5-5.4
		s-4.5,2.1-4.5,5.4S519.2,617.1,521.8,617.1L521.8,617.1z"/>
	<path class="st0" d="M550.7,618.5c0.1,1.2-0.9,2.2-2,2.3c-0.1,0-0.2,0-0.3,0c-1.1,0.1-2.1-0.7-2.2-1.8c-1.4,1.2-3.2,1.9-5.1,1.8
		c-4.3,0-7.4-2.7-7.4-6.5V605c-0.1-1.2,0.8-2.2,2-2.3c0.1,0,0.2,0,0.3,0c1.2,0,2.2,0.9,2.2,2.1c0,0.1,0,0.1,0,0.2v8.5
		c0,2,1.7,3.7,3.7,3.7c0.1,0,0.1,0,0.2,0c2.1,0.1,3.9-1.5,4-3.6c0-0.1,0-0.1,0-0.2V605c0-1.3,1-2.3,2.3-2.3c1.2,0,2.3,1,2.3,2.3
		L550.7,618.5z"/>
	<path class="st0" d="M553.9,605c0-1.3,1.1-2.3,2.3-2.2c1,0,1.9,0.7,2.2,1.7c1.3-1.1,3-1.8,4.7-1.8c1.5,0,2.1,0.7,2.1,1.8
		s-0.6,1.7-1.9,1.7c-2.6,0-4.8,1.6-4.8,3.7v8.4c0,1.3-1,2.3-2.3,2.3c-1.2,0-2.3-1-2.3-2.3L553.9,605z"/>
	<path class="st0" d="M579.7,620.7c-1.2,0.1-2.2-0.8-2.3-2c0-0.1,0-0.2,0-0.2v-11.8h-1.8c-0.9,0-1.6-0.7-1.6-1.6
		c0-0.9,0.7-1.6,1.6-1.6h1.8c0.1-3.6,3.1-6.3,7.2-6.3h1.2c0.9,0.1,1.5,0.8,1.4,1.7c-0.1,0.8-0.7,1.4-1.4,1.4
		c-1.9-0.1-3.6,1.3-3.8,3.1h3.8c0.8,0,1.5,0.6,1.6,1.4c0,0.1,0,0.1,0,0.2c0.1,0.8-0.5,1.5-1.3,1.6c-0.1,0-0.2,0-0.2,0H582v11.8
		c0.1,1.2-0.9,2.2-2,2.2C579.9,620.7,579.8,620.7,579.7,620.7z"/>
	<path class="st0" d="M606.2,618.5c0.1,1.2-0.9,2.2-2,2.3c-0.1,0-0.2,0-0.3,0c-1.1,0.1-2.1-0.7-2.2-1.8c-1.4,1.2-3.2,1.9-5.1,1.8
		c-4.3,0-7.4-2.7-7.4-6.5V605c-0.1-1.2,0.8-2.2,2-2.3c0.1,0,0.2,0,0.3,0c1.2,0,2.2,0.9,2.2,2.1c0,0.1,0,0.1,0,0.2v8.5
		c0,2,1.7,3.7,3.7,3.7c0.1,0,0.1,0,0.2,0c2.1,0.1,3.9-1.5,4-3.6c0-0.1,0-0.1,0-0.2V605c0-1.3,1-2.3,2.3-2.3c1.2,0,2.3,1,2.3,2.3
		L606.2,618.5z"/>
	<path class="st0" d="M611.3,603.1v-3.6c0-1.3,1-2.3,2.3-2.2s2.3,1,2.2,2.3v3.5h3.9c0.8,0,1.5,0.6,1.6,1.4c0,0.1,0,0.1,0,0.2
		c0.1,0.8-0.6,1.5-1.4,1.6c-0.1,0-0.1,0-0.2,0h-3.9v6.5c0,2.1,1.6,3.8,3.7,3.8c0.1,0,0.1,0,0.2,0c1.1-0.1,2.1,0.8,2.2,1.9
		c0.1,1.1-0.8,2.1-1.9,2.2c-0.1,0-0.2,0-0.3,0h-1.4c-4.1,0-7-3.1-7-7.4v-7h-1.8c-0.8,0-1.5-0.6-1.6-1.4c0-0.1,0-0.1,0-0.2
		c-0.1-0.8,0.5-1.5,1.3-1.6c0.1,0,0.2,0,0.2,0L611.3,603.1z"/>
	<path class="st0" d="M641,618.5c0.1,1.2-0.9,2.2-2,2.3c-0.1,0-0.2,0-0.3,0c-1.1,0.1-2.1-0.7-2.2-1.8c-1.4,1.2-3.2,1.9-5.1,1.8
		c-4.3,0-7.4-2.7-7.4-6.5V605c-0.1-1.2,0.8-2.2,2-2.3c0.1,0,0.2,0,0.3,0c1.2,0,2.2,0.9,2.2,2.1c0,0.1,0,0.1,0,0.2v8.5
		c0,2,1.7,3.7,3.7,3.7c0.1,0,0.1,0,0.2,0c2.1,0.1,3.9-1.5,4-3.6c0-0.1,0-0.1,0-0.2V605c0-1.3,1-2.3,2.3-2.3c1.2,0,2.3,1,2.3,2.3
		L641,618.5z"/>
	<path class="st0" d="M644.3,605c0-1.3,1.1-2.3,2.3-2.2c1,0,1.9,0.7,2.2,1.7c1.3-1.1,3-1.8,4.7-1.8c1.5,0,2.1,0.7,2.1,1.8
		s-0.6,1.7-1.9,1.7c-2.6,0-4.8,1.6-4.8,3.7v8.4c0,1.3-1,2.3-2.3,2.3c-1.2,0-2.3-1-2.3-2.3L644.3,605z"/>
	<path class="st0" d="M661.2,612.7c0,2.6,2.1,4.6,4.7,4.6c0,0,0.1,0,0.1,0c1.8,0,3.5-1,4.4-2.6c0.5-0.5,1.2-0.8,1.8-0.8
		c0.8-0.1,1.5,0.6,1.6,1.4c0,0.3,0,0.5-0.1,0.7c-0.9,2.5-4.2,4.7-8.2,4.7c-5-0.3-8.7-4.7-8.3-9.6c0.3-4.4,3.8-7.9,8.2-8.3
		c4.1-0.1,7.6,2.7,8.5,6.7c0.5,1.8-0.8,3.3-3,3.3L661.2,612.7z M669.3,610.1c-0.3-2.7-1.9-4.4-4-4.4s-3.7,1.7-4,4.4H669.3z"/>
	<path class="st1" d="M310.6,586.6c-27.8,0-47.9-19.6-47.9-46.3v-63.4c0-7,4.7-11.6,11.6-11.6c7.1,0,11.8,4.7,11.8,11.6v27.4
		c7-6.5,16.3-10.4,28-10.4c26.7,0,44.7,19.6,44.7,46.4S338.7,586.6,310.6,586.6z M334.9,540.4c0-17.2-10.2-28-24.4-28
		c-14.1,0-24.3,10.8-24.3,28c0,17,10.2,27.8,24.3,27.8C324.7,568.2,334.9,557.3,334.9,540.4"/>
	<path class="st1" d="M416.9,493.9c27.5,0,47.4,19.6,47.4,46.4s-19.9,46.3-47.4,46.3s-47.2-19.4-47.2-46.3S389.4,493.9,416.9,493.9z
		 M416.9,568.2c13.6,0,23.5-10.7,23.5-27.8s-9.9-28-23.5-28c-13.4,0-23.3,10.8-23.3,28S403.5,568.2,416.9,568.2z"/>
	<path class="st1" d="M522.6,493.9c27.5,0,47.4,19.6,47.4,46.4s-19.9,46.3-47.4,46.3s-47.2-19.4-47.2-46.3S495.1,493.9,522.6,493.9z
		 M522.6,568.2c13.6,0,23.5-10.7,23.5-27.8s-9.9-28-23.5-28c-13.4,0-23.3,10.8-23.3,28S509.1,568.2,522.6,568.2z"/>
	<path class="st1" d="M584.7,505.6c0-7,4.5-11.6,11.8-11.6c7,0,11.7,4.7,11.7,11.6V575c0,7-4.7,11.7-11.8,11.7
		c-7,0-11.7-4.7-11.7-11.7V505.6z"/>
	<path class="st1" d="M626,504.7c0-7,4.7-11.6,11.8-11.6c6.3,0,10.7,3.9,11.5,9.7c7.4-6.3,16.8-9.7,26.5-9.7
		c22.3,0,38.2,14.1,38.2,33.3v47.7c0,7-4.5,11.7-11.8,11.7c-7,0-11.7-4.7-11.7-11.7v-43.5c0-11-8.4-19.3-20.2-19.3
		c-12,0-20.9,8.2-20.9,19.3v43.5c0,7-4.5,11.7-11.8,11.7c-7,0-11.7-4.7-11.7-11.7L626,504.7z"/>
	<path class="st1" d="M772.3,601.2c11.2,0,19.6-6.5,19.6-16.5c0-10.2-8.4-17.5-20.1-17.5c-25.1,0-43.2-15.5-43.2-36.6
		c0-21.2,18.1-36.7,43.2-36.7c6.9-0.1,13.7,1.3,20.1,4l9.4-9.4c1.4-1.6,3.5-2.6,5.7-2.8c4.4,0,8.4,4.4,8.4,8.7
		c-0.1,2.1-1,4.1-2.6,5.5l-6.8,6.8c5.6,5.6,8.7,13.1,8.6,21c0,12.8-7.3,23.5-19.6,28.8c12.6,5.8,20.4,16.3,20.4,29
		c0,19.6-18,31.7-42.4,31.7c-26.5,0-45.5-14.1-45.6-33.5c0-7,4.5-11.7,10.8-11.7c5.7,0,10,3.9,11.5,9.5
		C750.8,593,760.1,601.2,772.3,601.2z M771.6,550.9c11.5,0,20.1-7.9,20.1-20.2s-8.6-20.2-20.1-20.2c-11.7,0-20.1,7.9-20.1,20.2
		S760,550.9,771.6,550.9z"/>
	<path class="st0" d="M595.7,484.6c-9.4,0-18.4-3.7-25-10.3c-1.6-1.6-1.6-4.1,0-5.7c1.6-1.6,4.1-1.6,5.7,0c10.7,10.7,28,10.7,38.7,0
		c1.6-1.6,4.1-1.6,5.7,0c1.6,1.6,1.6,4.1,0,5.7l0,0C614,480.9,605.1,484.7,595.7,484.6z"/>
	<path class="st0" d="M625.6,455.9c-1.5,0-2.9-0.6-3.9-1.6c-6.9-6.9-16.2-10.8-26-10.8l0,0c-9.8,0-19.1,3.9-26,10.8
		c-2.1,2.1-5.6,2.1-7.8,0c-2.1-2.1-2.1-5.6,0-7.8c8.9-9,21.1-14,33.8-14l0,0c12.7,0,24.9,5,33.8,14c2.1,2.1,2.1,5.6,0,7.8
		C628.5,455.3,627.1,455.9,625.6,455.9L625.6,455.9z"/>
	<path class="st0" d="M607.5,458.9c-0.1-0.9-1-1.6-1.9-1.4c-0.4,0.1-0.7,0.2-1,0.5l-1.5,1.5c-1.7,1.7-4.4,1.7-6.1,0s-1.7-4.4,0-6.1
		l1.8-1.9c0.7-0.7,0.7-1.8,0-2.5c-0.2-0.2-0.5-0.4-0.9-0.5c-1.3-0.2-2.5-0.3-3.8-0.1c-6.5,0.8-11.1,6.8-10.3,13.4
		c0.8,6.5,6.8,11.1,13.4,10.3C603.7,471.3,608.3,465.4,607.5,458.9L607.5,458.9z M596.5,467.5c-1.5,0-2.7-1.2-2.7-2.7
		s1.2-2.7,2.7-2.7c1.5,0,2.7,1.2,2.7,2.7c0,0,0,0,0,0C599.3,466.2,598,467.5,596.5,467.5L596.5,467.5z"/>
</g>
</svg>
