<?xml version="1.0" encoding="utf-8"?>
<!-- Generator: Adobe Illustrator 21.0.0, SVG Export Plug-In . SVG Version: 6.00 Build 0)  -->
<svg version="1.1" id="Livello_1" xmlns="http://www.w3.org/2000/svg" xmlns:xlink="http://www.w3.org/1999/xlink" x="0px" y="0px"
	 viewBox="0 0 318.3 355.3" style="enable-background:new 0 0 318.3 355.3;" xml:space="preserve">
<style type="text/css">
	.st0{fill:none;}
	.st1{fill:#D11229;}
</style>
<g>
	<circle class="st0" cx="160.5" cy="199.7" r="11"/>
	<path class="st1" d="M236.1,214.5c-0.4,0.4-0.8,0.7-1.1,1.1c-43,42.9-112.7,42.9-155.7,0c-6.3-6.3-16.5-6.3-22.8,0
		c-6.3,6.3-6.3,16.5,0,22.8c12.8,12.8,28,23.1,44.6,30.2v46c0,12.4,10.1,22.5,22.5,22.5c12.4,0,22.5-10.1,22.5-22.5v-35
		c3.7,0.3,7.3,0.4,11,0.4c3.7,0,7.3-0.1,11-0.4v34.6c0,12.4,10.1,22.5,22.5,22.5c12.4,0,22.5-10.1,22.5-22.5v-45.6
		c16.7-7.1,31.8-17.4,44.6-30.2c6.6-6,7.1-16.2,1.2-22.8C252.9,209.1,242.7,208.5,236.1,214.5z"/>
	<path class="st1" d="M293.2,126.5L293.2,126.5c-22.4-22.5-49.9-39-80.3-48.2V36.4c0-12.4-10.1-22.5-22.5-22.5S167.9,24,167.9,36.4
		v34c-3.6-0.2-7.2-0.3-10.8-0.3c-3.5,0-7,0.1-10.5,0.3v-34c0-12.4-10.1-22.5-22.5-22.5S101.6,24,101.6,36.4v41.8
		c-30.5,9.2-58.2,25.8-80.7,48.3c-8.7,8.6-8.7,22.7,0,31.3c8.6,8.7,22.7,8.7,31.3,0c27.7-27.9,65.5-43.5,104.8-43.4
		c39.3-0.1,77.1,15.5,104.8,43.4c8.7,8.6,22.7,8.6,31.3,0C301.9,149.2,301.9,135.2,293.2,126.5z"/>
	<path class="st1" d="M169.7,146.6c2.8-2.7,2.8-7.1,0.1-9.9c-1-1-2.3-1.7-3.6-2c-5.1-1-10.2-1.2-15.4-0.5
		c-26.3,3.4-44.8,27.5-41.4,53.8c3.4,26.3,27.5,44.8,53.8,41.4c26-3.4,44.5-27,41.5-53.1c-0.6-5.5-7.6-7.7-11.5-3.8l-6.2,6.2
		c-6.8,6.8-17.9,6.8-24.7,0c-6.8-6.8-6.8-17.9,0-24.7L169.7,146.6z M160.5,188.7c6.1,0,11,4.9,11,11s-4.9,11-11,11s-11-4.9-11-11
		S154.4,188.7,160.5,188.7z"/>
</g>
</svg>
